HIERARCHY
ROOT pelvis
{
  OFFSET 0 100 0
  CHANNELS 6 Xposition Yposition Zposition Zrotation Xrotation Yrotation
  JOINT pelvis_right_femur
  {
    OFFSET -10.78128 -3.44521 -0.5502486
    CHANNELS 3 Zrotation Xrotation Yrotation
    JOINT right_femur_tibia
    {
      OFFSET -0.8047443 -44.0398 -0.1307829
      CHANNELS 3 Zrotation Xrotation Yrotation
      JOINT right_tibia_foot
      {
        OFFSET 3.006224 -47.83518 -5
        CHANNELS 3 Zrotation Xrotation Yrotation
        End Site
        {
          OFFSET 0 -5 15
        }
      }
    }
  }
  JOINT pelvis_left_femur
  {
    OFFSET 10.78128 -3.44521 -0.5502486
    CHANNELS 3 Zrotation Xrotation Yrotation
    JOINT left_femur_tibia
    {
      OFFSET 0.8047443 -44.0398 -0.1307829
      CHANNELS 3 Zrotation Xrotation Yrotation
      JOINT left_tibia_foot
      {
        OFFSET -4.370144 -48.10324 -4.275266
        CHANNELS 3 Zrotation Xrotation Yrotation
        End Site
        {
          OFFSET 0 -5 15
        }
      }
    }
  }
  JOINT pelvis_spine1
  {
    OFFSET 0 6.468898 -3.129235
    CHANNELS 3 Zrotation Xrotation Yrotation
    JOINT spine1
    {
      OFFSET 0 23.15396 4.99043
      CHANNELS 3 Zrotation Xrotation Yrotation
      JOINT spine2
      {
        OFFSET 0 20.79997 -5.064912
        CHANNELS 3 Zrotation Xrotation Yrotation
        JOINT neck
        {
          OFFSET 0 14.38658 9.616178
          CHANNELS 3 Zrotation Xrotation Yrotation
          End Site
          {
            OFFSET 0 20 0
          }
        }
      }
      JOINT right_manubrium
      {
        OFFSET -5.722621 16.35077 3.967754
        CHANNELS 3 Zrotation Xrotation Yrotation
        JOINT right_clavicle
        {
          OFFSET -13.16364 1.694482 -4.693211
          CHANNELS 3 Zrotation Xrotation Yrotation
          JOINT right_humerus
          {
            OFFSET -28.5034 -0.3100689 -2.792744
            CHANNELS 3 Zrotation Xrotation Yrotation
            JOINT right_radius
            {
              OFFSET -25.15693 0.02248979 -1.271978
              CHANNELS 3 Zrotation Xrotation Yrotation
              End Site
              {
                OFFSET -15 0 0
              }
            }
          }
        }
      }
      JOINT left_manubrium
      {
        OFFSET 5.722621 16.35077 3.967754
        CHANNELS 3 Zrotation Xrotation Yrotation
        JOINT left_clavicle
        {
          OFFSET 13.16364 1.694482 -4.693211
          CHANNELS 3 Zrotation Xrotation Yrotation
          JOINT left_humerus
          {
            OFFSET 29.39168 -1.063119 -2.237045
            CHANNELS 3 Zrotation Xrotation Yrotation
            JOINT left_radius
            {
              OFFSET 24.59957 -0.9528479 0.9047498
              CHANNELS 3 Zrotation Xrotation Yrotation
              End Site
              {
                OFFSET 15 -0 -0
              }
            }
          }
        }
      }
    }
  }
}
MOTION
Frames: 15
Frame Time: 0.0416666666667
0 103.5113 0 0.8454894 -0.896452 0.06297213 3.416194 -16.13507 8.884285 -0 38.95684 -0 -5.930848 -15.73844 -2.804977 -7.383971 6.193454 -23.42245 -0 4.595962 -0 7.634163 -18.17598 26.6956 -2.001591 -2.012217 4.232718 2.1575 10.0496 -6.784876 0.7735938 22.23404 7.023293 4.61614 -23.88307 7.638498 6.055348 -18.52077 11.85355 85.0199 37.57381 -17.23451 -0 0 12.89216 -10.38978 8.560898 6.56226 6.349729 -21.53727 -2.766683 -93.0444 22.75481 21.68003 0 0 -15.21819 12.24921 17.08787 -0.3056706
0.3786153 103.357 0.9205538 0.7986787 -0.8197054 0.1337261 3.640172 -18.07368 8.858932 -0 38.83455 -0 -6.022463 -15.1312 -3.057402 -7.339759 8.058012 -23.50078 -0 5.576845 -0 7.537947 -18.57399 26.36774 -1.944186 -2.220195 4.029474 2.361358 10.17999 -7.101519 0.6953727 22.16239 7.090559 4.728396 -24.35888 7.669143 6.131329 -18.49649 11.91165 85.78383 37.87345 -18.39469 -0 0 12.26148 -9.56242 8.309683 6.105163 6.49705 -22.10893 -2.858778 -92.92274 22.68553 21.44577 0 0 -16.07215 13.20558 17.48549 -1.274795
0.7063427 103.2334 2.248771 0.7853667 -1.080869 0.318266 3.542346 -20.05465 8.208167 -0 38.97639 -0 -5.782645 -13.04536 -3.433532 -7.199824 10.29888 -22.69018 -0 6.604376 -0 6.734935 -19.05757 25.24391 -1.941246 -2.116246 3.976339 2.383646 10.03565 -7.193682 0.7477736 22.14411 7.088252 4.588735 -24.26504 7.7662 6.06293 -18.2719 11.83031 86.05473 37.70623 -18.81586 -0 0 12.07681 -9.6836 8.549703 6.079184 6.411746 -22.00764 -2.837178 -92.5888 23.34423 20.96233 0 0 -16.81272 12.18597 17.24226 -0.02294325
0.9784971 103.0189 3.824939 0.6946892 -0.995171 0.5277041 3.670214 -21.95214 7.608591 -0 36.81753 -0 -5.921085 -12.12139 -3.571045 -6.957457 11.86017 -22.08034 -0 6.643099 -0 6.364118 -19.51816 24.41295 -1.918564 -2.133651 3.874977 2.468753 10.0027 -7.357994 0.7488236 22.10781 7.110622 4.551293 -24.38406 7.830803 6.051459 -18.14096 11.80644 86.48098 37.7129 -19.4647 -0 0 11.75129 -9.454822 8.592081 5.901721 6.416363 -22.15621 -2.858508 -92.35976 23.68344 20.61188 0 0 -17.5285 11.96179 17.24753 0.3264791
1.186998 102.603 5.755246 0.5534959 -0.8376995 0.7601309 3.80523 -24.12579 6.679923 -0 33.04183 -0 -6.173695 -11.11732 -3.642077 -6.585042 13.43566 -21.11466 -0 6.204521 -0 5.877382 -20.05925 23.27676 -1.902989 -2.114083 3.782678 2.535141 9.936759 -7.50223 0.7653791 22.07947 7.12625 4.485085 -24.43505 7.904441 6.022568 -17.97271 11.76441 86.87008 37.66202 -20.05516 -0 0 11.45019 -9.332708 8.690377 5.766756 6.398847 -22.23675 -2.869561 -92.08049 24.10508 20.18961 0 0 -18.25909 11.52216 17.17143 0.9172584
1.330775 101.9628 8.080474 0.3996712 -0.6882809 1.016186 3.905558 -26.34164 5.651921 -0 28.89415 -0 -6.440731 -10.03967 -3.704067 -6.201961 15.01992 -20.02697 -0 5.797395 -0 5.30497 -20.58572 22.02035 -1.889416 -2.10496 3.675191 2.606044 9.884548 -7.652522 0.7767603 22.057 7.145501 4.435647 -24.49346 7.970895 5.999209 -17.79521 11.72641 87.28472 37.6227 -20.67415 -0 0 11.10064 -9.186245 8.758315 5.614914 6.402823 -22.35528 -2.890467 -91.77987 24.45112 19.72147 0 0 -18.98077 11.2263 17.12092 1.331588
1.412243 101.0852 10.91556 0.2430719 -0.6354866 1.309018 3.897715 -28.54448 4.415261 -0 24.52874 -0 -6.647821 -8.598038 -3.793372 -5.814635 16.66259 -18.6421 -0 5.643253 -0 4.479966 -21.05789 20.48398 -1.884843 -2.077719 3.546224 2.671108 9.82075 -7.802369 0.7947926 22.04977 7.165495 4.383367 -24.50467 8.038262 5.967731 -17.55898 11.67595 87.72643 37.55255 -21.31853 -0 0 10.67817 -9.090795 8.834274 5.467294 6.420528 -22.47732 -2.91814 -91.38619 24.77408 19.09307 0 0 -19.74179 10.94163 17.03701 1.713541
1.441564 99.99027 14.37594 0.1007396 -0.7405158 1.649714 3.758344 -30.47587 3.018328 -0 20.32912 -0 -6.745916 -6.778707 -3.926427 -5.460808 18.21329 -16.96004 -0 6.048771 -0 3.361942 -21.36234 18.69745 -1.890739 -2.033711 3.392475 2.729509 9.749138 -7.95007 0.8184439 22.06101 7.186791 4.333266 -24.46541 8.103398 5.929515 -17.26068 11.61396 88.19422 37.4534 -21.98377 -0 0 10.172 -9.047565 8.909997 5.323383 6.458473 -22.61032 -2.955139 -90.89375 25.04302 18.28992 0 0 -20.52756 10.71193 16.9265 2.006583
1.435436 98.7385 18.57091 -0.01126517 -1.065271 2.042168 3.510187 -31.85176 1.54689 -0 16.64498 -0 -6.697474 -4.610813 -4.125807 -5.1652 19.49037 -14.98757 -0 7.465147 -0 1.921833 -21.3502 16.70859 -1.909251 -1.966351 3.20949 2.778897 9.664968 -8.094804 0.8503231 22.09448 7.209016 4.282261 -24.36072 8.167395 5.88137 -16.88435 11.53656 88.69226 37.31379 -22.67308 -0 0 9.566482 -9.075046 8.992021 5.186787 6.51805 -22.75105 -3.002497 -90.27887 25.25581 17.27013 0 0 -21.35108 10.52313 16.77716 2.22239
1.416133 97.45242 23.55232 -0.07307268 -1.651266 2.473764 3.256338 -32.31146 0.2254272 -0 13.97868 -0 -6.484815 -2.296099 -4.411232 -4.944354 20.22552 -12.85935 -0 10.45597 -0 0.2295356 -20.84125 14.70144 -1.938524 -1.879532 3.00832 2.816631 9.57303 -8.22897 0.8887858 22.14746 7.230543 4.232054 -24.19739 8.227098 5.825411 -16.45269 11.44844 89.19246 37.13918 -23.34795 -0 0 8.89796 -9.171592 9.07767 5.065519 6.594555 -22.89112 -3.057585 -89.57978 25.39998 16.09489 0 0 -22.16942 10.37823 16.59712 2.358871
1.405575 96.31968 29.28087 -0.06892721 -2.508522 2.910457 3.154363 -31.54675 -0.6535918 -0 12.80439 -0 -6.118721 -0.1405837 -4.795025 -4.786473 20.15846 -10.79352 -0 15.5784 -0 -1.573283 -19.68325 12.93539 -1.973349 -1.782491 2.82614 2.834047 9.483369 -8.327976 0.9299537 22.21036 7.246189 4.18447 -23.9953 8.274995 5.76749 -16.0363 11.36199 89.60479 36.94997 -23.88751 -0 0 8.288841 -9.335655 9.164788 4.986837 6.668674 -22.99449 -3.109038 -88.91323 25.47346 14.96244 0 0 -22.85323 10.25164 16.40251 2.452838
1.41613 95.5655 35.60682 0.001436617 -3.591847 3.294599 3.343567 -29.38656 -0.8433384 -0 13.31279 -0 -5.658925 1.473453 -5.256182 -4.646578 19.07668 -9.041763 -0 23.11828 -0 -3.297303 -17.81427 11.68427 -2.006277 -1.687895 2.735759 2.811075 9.411211 -8.339271 0.9680953 22.26728 7.245547 4.141557 -23.78155 8.296566 5.717739 -15.76543 11.29828 89.74676 36.78552 -24.04505 -0 0 7.978529 -9.580298 9.252982 5.010254 6.702352 -22.98161 -3.133161 -88.49305 25.48597 14.24434 0 0 -23.14194 10.08053 16.21392 2.587323
1.44181 95.38987 42.27777 0.110776 -4.789515 3.543724 3.872325 -25.80692 -0.2643266 -0 15.13707 -0 -5.231555 2.123784 -5.711362 -4.450224 16.79701 -7.800273 -0 32.84315 -0 -4.752661 -15.28858 11.15439 -2.031346 -1.604061 2.818028 2.72229 9.368672 -8.20062 0.9989969 22.30321 7.21649 4.10307 -23.57393 8.276274 5.685409 -15.77644 11.27747 89.41123 36.68221 -23.53762 -0 0 8.232256 -9.937454 9.346865 5.208415 6.652309 -22.75521 -3.102284 -88.54231 25.45771 14.3342 0 0 -22.74315 9.776997 16.04166 2.872344
1.458457 95.88162 48.97267 0.203439 -5.918909 3.555729 4.668548 -20.91358 0.9451996 -0 17.29754 -0 -5.016329 1.398255 -6.00356 -4.11151 13.14681 -7.154167 -0 43.693 -0 -5.76365 -12.30286 11.44222 -2.048647 -1.52795 3.102735 2.554513 9.355415 -7.884637 1.023474 22.31565 7.153587 4.066204 -23.36482 8.20865 5.671359 -16.11101 11.30404 88.51816 36.63321 -22.24873 -0 0 9.146829 -10.43972 9.452444 5.616138 6.501437 -22.27076 -3.004851 -89.132 25.391 15.35526 0 0 -21.54512 9.291404 15.87463 3.364566
1.441905 96.94084 55.39668 0.2210873 -6.766059 3.244026 5.525169 -15.07701 2.402904 -0 18.5477 -0 -5.13827 -0.8131422 -5.967568 -3.582357 8.174779 -7.003084 -0 53.51765 -0 -6.217833 -9.260204 12.44329 -2.067188 -1.441398 3.5324 2.316983 9.354882 -7.424928 1.049327 22.32244 7.062945 4.026589 -23.10996 8.103828 5.662727 -16.65526 11.35793 87.20691 36.57063 -20.35125 -0 0 10.53144 -11.11111 9.57368 6.200294 6.279495 -21.58103 -2.859328 -90.08055 25.25202 16.9827 0 0 -19.74004 8.661899 15.67707 4.003679
